<svg width="800" height="800" viewBox="0 0 20 20" xmlns="http://www.w3.org/2000/svg">
  <g stroke-width="0"/>
  <g stroke-linecap="round" stroke-linejoin="round"/>
  <g transform="translate(-2 -2)">
    <path fill="#c81058" d="M21 12a8 8 0 0 1 0 .83l-2.1-.29a4.38 4.38 0 0 0-4.9 4.35v3.89a9.2 9.2 0 0 1-4 0v-3.89a4.38 4.38 0 0 0-4.86-4.35L3 12.83A8 8 0 0 1 3 12a8.8 8.8 0 0 1 .46-2.83 31.75 31.75 0 0 1 17.08 0A8.8 8.8 0 0 1 21 12"/>
    <path d="M14 20.62v-3.73a4.38 4.38 0 0 1 4.86-4.35l2 .23" fill="none" stroke="#808080" stroke-linecap="round" stroke-linejoin="round" stroke-width="2"/>
    <path data-name="primary" d="m3.16 12.77 2-.23A4.38 4.38 0 0 1 10 16.89v3.73M20.37 9.17A29.4 29.4 0 0 0 12 8a29 29 0 0 0-8.49 1.21" fill="none" stroke="#808080" stroke-linecap="round" stroke-linejoin="round" stroke-width="2"/>
    <circle data-name="primary" cx="9" cy="9" r="9" transform="translate(3 3)" fill="none" stroke="#808080" stroke-linecap="round" stroke-linejoin="round" stroke-width="2"/>
  </g>
</svg>