<!DOCTYPE svg PUBLIC "-//W3C//DTD SVG 1.1//EN" "http://www.w3.org/Graphics/SVG/1.1/DTD/svg11.dtd">
<!-- Uploaded to: SVG Repo, www.svgrepo.com, Transformed by: SVG Repo Mixer Tools -->
<svg fill="#000000" width="800px" height="800px" viewBox="0 0 24 24" id="stopwatch-5-second" data-name="Flat Color" xmlns="http://www.w3.org/2000/svg" class="icon flat-color">
<g id="SVGRepo_bgCarrier" stroke-width="0"/>
<g id="SVGRepo_tracerCarrier" stroke-linecap="round" stroke-linejoin="round"/>
<g id="SVGRepo_iconCarrier">
<path id="secondary" d="M17.3,9.2a1,1,0,0,1-.7-.3,1,1,0,0,1,0-1.41L18.09,6a1,1,0,1,1,1.42,1.42L18,8.9A1,1,0,0,1,17.3,9.2ZM6.7,9.2A1,1,0,0,1,6,8.9L4.49,7.41A1,1,0,0,1,5.91,6L7.4,7.49a1,1,0,0,1,0,1.41A1,1,0,0,1,6.7,9.2ZM12,7a1,1,0,0,1-1-1V4H9A1,1,0,0,1,9,2h6a1,1,0,0,1,0,2H13V6A1,1,0,0,1,12,7Z" style="fill: #85858a;"/>
<circle id="primary" cx="12" cy="13.5" r="8.5" style="fill: #c81058;"/>
<path id="secondary-2" data-name="secondary" d="M14.72,17.06A4.48,4.48,0,0,0,12,9v5Z" style="fill: #85858a;"/>
</g>
</svg>