<svg width="14" height="15" viewBox="0 0 14 15" fill="none" xmlns="http://www.w3.org/2000/svg">
<g id="SVG">
<path id="Vector" d="M13.6109 0.359863H5.05533C4.84037 0.359863 4.66643 0.533806 4.66643 0.748764C4.66643 0.963722 4.84037 1.13767 5.05533 1.13767H12.6721L0.113697 13.6961C-0.0382245 13.848 -0.0382245 14.0941 0.113697 14.246C0.18964 14.3219 0.289171 14.3599 0.388666 14.3599C0.488161 14.3599 0.587656 14.3219 0.663635 14.246L13.222 1.68756V9.30433C13.222 9.51929 13.3959 9.69323 13.6109 9.69323C13.8259 9.69323 13.9998 9.51929 13.9998 9.30433V0.748764C13.9998 0.533806 13.8258 0.359863 13.6109 0.359863Z" fill="#050B20"/>
</g>
</svg>
